<?xml version="1.0" standalone="no"?>
<!DOCTYPE svg PUBLIC "-//W3C//DTD SVG 20010904//EN"
 "http://www.w3.org/TR/2001/REC-SVG-20010904/DTD/svg10.dtd">
<svg version="1.0" xmlns="http://www.w3.org/2000/svg"
 width="800.000000pt" height="800.000000pt" viewBox="0 0 800.000000 800.000000"
 preserveAspectRatio="xMidYMid meet">
<metadata>
Created by potrace 1.14, written by Peter Selinger 2001-2017
</metadata>
<g transform="translate(0.000000,800.000000) scale(0.100000,-0.100000)"
fill="#000000" stroke="none">
<path d="M2855 7993 c-24 -7 -63 -31 -92 -58 -21 -20 -42 -80 -49 -140 -4 -38
-4 -357 1 -410 11 -142 52 -258 154 -440 56 -99 241 -315 270 -315 6 0 11 -4
11 -8 0 -5 21 -24 48 -42 26 -19 49 -37 52 -40 5 -6 94 -64 229 -150 39 -24
71 -49 71 -55 0 -10 -18 -22 -110 -72 -105 -58 -280 -177 -288 -195 -2 -5 -8
-8 -12 -8 -12 0 -91 -71 -163 -145 -51 -52 -131 -160 -163 -220 -6 -11 -22
-41 -37 -68 -15 -26 -27 -49 -27 -52 0 -3 -9 -24 -19 -48 -31 -73 -50 -183
-53 -312 -1 -69 10 -193 19 -208 2 -4 7 -19 9 -34 8 -45 63 -179 104 -254 135
-244 321 -416 653 -601 62 -35 115 -63 119 -63 3 0 9 -3 12 -6 8 -8 -24 -28
-84 -54 -61 -27 -202 -112 -292 -176 -159 -115 -247 -200 -335 -327 -51 -72
-165 -284 -161 -300 1 -4 -1 -14 -5 -22 -6 -17 -19 -68 -22 -90 -11 -77 -18
-169 -17 -235 1 -44 2 -94 2 -110 0 -47 36 -176 71 -257 62 -144 144 -263 269
-389 129 -131 238 -209 450 -324 69 -37 129 -71 133 -75 5 -4 -36 -31 -90 -60
-180 -96 -290 -175 -417 -298 -189 -184 -336 -431 -371 -622 -14 -73 -15 -513
-2 -562 26 -96 81 -139 182 -144 155 -6 194 65 196 359 1 101 3 117 17 118 91
5 1741 3 1752 -2 12 -6 16 -32 18 -131 5 -206 13 -263 38 -286 50 -45 79 -56
149 -56 59 -1 76 3 108 24 76 51 95 133 91 397 -3 178 -4 196 -23 307 -21 122
-92 303 -152 388 -11 14 -19 31 -19 36 0 6 -3 12 -7 14 -5 1 -26 26 -47 53
-62 78 -202 213 -276 265 -19 13 -40 29 -46 35 -6 5 -55 39 -110 75 -54 36
-105 70 -111 77 -7 6 -18 13 -25 16 -17 6 -18 5 102 71 180 100 280 175 417
313 166 167 299 399 318 556 3 20 7 56 10 80 8 57 8 252 1 307 -9 63 -15 103
-19 120 -3 8 -8 30 -12 48 -4 18 -12 35 -16 38 -5 3 -9 13 -9 23 0 36 -127
270 -151 279 -5 2 -9 8 -9 13 0 21 -159 185 -245 252 -33 26 -65 51 -72 57
-42 34 -225 144 -290 174 -40 18 -41 30 -5 49 105 54 290 174 367 238 51 42
179 172 210 214 17 22 32 42 35 45 33 30 155 251 166 300 2 11 6 29 9 41 2 11
7 29 10 40 4 11 8 34 11 52 2 18 7 55 10 82 15 105 6 313 -15 369 -6 14 -8 26
-5 26 2 0 0 9 -6 21 -7 11 -14 33 -16 47 -7 38 -61 146 -107 217 -99 150 -240
285 -433 415 -67 46 -88 59 -181 111 -21 12 -53 30 -71 41 l-32 20 22 17 c13
10 45 30 73 46 27 15 68 40 91 56 24 16 47 29 52 29 6 0 12 3 14 8 2 4 21 20
43 36 22 16 47 36 55 43 8 7 37 32 65 56 143 123 255 257 317 382 41 82 101
252 93 265 -3 5 -2 11 3 14 11 7 16 90 16 296 -1 205 -4 239 -27 290 -31 68
-77 98 -164 106 -68 6 -111 -13 -155 -67 -31 -39 -41 -100 -41 -266 0 -57 -3
-104 -6 -104 -3 -1 -405 -2 -893 -3 l-887 -1 -1 95 c0 84 -6 175 -13 220 -5
33 -47 89 -76 105 -33 16 -123 27 -156 18z m1930 -754 c3 -4 14 -5 25 -2 24 6
25 1 4 -40 -26 -49 -100 -142 -175 -219 l-68 -69 -543 5 c-299 3 -554 7 -568
9 -67 11 -90 22 -131 62 -75 74 -99 101 -99 113 0 7 -4 12 -8 12 -8 0 -58 82
-74 123 -8 18 22 18 812 16 452 -1 823 -6 825 -10z m-702 -663 c-24 -17 -78
-35 -95 -32 -17 3 -78 35 -78 41 0 3 43 5 96 4 79 -1 92 -3 77 -13z m45 -517
c67 -35 122 -65 122 -68 0 -3 -121 -6 -270 -6 -148 0 -270 1 -270 3 0 6 265
131 280 132 8 0 70 -27 138 -61z m542 -403 c57 -12 94 -33 118 -65 12 -17 22
-35 22 -41 0 -5 3 -10 8 -10 6 0 74 -122 78 -140 0 -3 3 -12 7 -20 3 -8 7 -24
9 -35 3 -20 -3 -20 -902 -22 -498 -1 -911 1 -919 3 -11 3 -11 7 -1 19 7 8 10
15 6 15 -21 0 133 266 167 287 5 3 161 8 346 10 184 2 336 5 337 6 7 6 695 0
724 -7z m185 -649 c11 -3 23 -6 27 -6 14 -2 -16 -68 -63 -136 -49 -73 -90
-119 -150 -171 l-37 -32 -618 0 -619 0 -61 43 c-90 65 -157 144 -209 250 l-25
50 33 6 c41 7 1695 3 1722 -4z m-772 -650 c37 -2 68 -8 69 -13 1 -5 -28 -24
-63 -43 l-64 -34 -85 42 c-47 24 -88 46 -92 50 -7 6 65 6 235 -2z m137 -637
c24 -22 24 -23 5 -30 -38 -14 -438 0 -454 16 -5 5 -17 -2 128 70 l124 61 85
-47 c47 -26 97 -58 112 -70z m477 -329 c31 -2 217 -288 207 -316 -7 -16 -34
-23 -121 -31 -72 -7 -1670 -12 -1690 -6 -14 4 -5 40 27 102 24 47 100 171 110
180 3 3 16 19 29 35 20 27 30 31 89 35 52 4 1295 5 1349 1z m223 -668 c0 -36
-80 -211 -115 -250 -5 -6 -25 -30 -44 -52 l-34 -41 -166 0 c-91 0 -415 -1
-719 -3 l-554 -3 -55 61 c-30 33 -65 76 -77 95 -33 53 -87 193 -77 199 5 3
421 6 925 6 717 0 916 -3 916 -12z m-565 -646 c-11 -8 -58 -34 -105 -59 -47
-24 -108 -59 -137 -77 l-51 -32 -161 82 c-88 46 -158 86 -155 90 2 4 145 8
317 8 270 2 309 0 292 -12z m-311 -618 c-3 -5 -16 -9 -30 -9 -28 0 -33 26 -6
32 20 5 44 -10 36 -23z m583 -384 c25 -27 61 -70 81 -94 21 -24 42 -49 49 -56
15 -15 73 -107 73 -115 0 -3 -365 -5 -811 -4 -590 1 -813 4 -822 13 -8 8 -8
11 2 11 7 0 10 4 7 9 -4 5 -2 11 2 13 5 1 23 23 41 47 50 70 143 172 182 201
l37 26 556 0 557 -1 46 -50z"/>
<path d="M2140 6547 c-67 -32 -289 -200 -434 -326 -104 -90 -301 -298 -371
-389 -21 -29 -43 -52 -49 -52 -5 0 -7 -3 -3 -6 3 -4 0 -13 -8 -20 -31 -31
-129 -190 -152 -246 -28 -71 -25 -115 13 -166 54 -71 121 -89 193 -53 44 23
84 66 166 176 32 44 61 82 65 85 4 3 11 13 16 22 28 51 249 281 364 378 36 30
67 58 70 61 3 3 50 41 105 85 55 43 102 81 105 84 3 3 28 23 55 45 107 85 133
128 121 200 -2 17 -5 33 -5 37 -3 20 -61 73 -99 89 -57 25 -96 24 -152 -4z"/>
<path d="M5707 6543 c-42 -12 -51 -20 -67 -56 -33 -76 -26 -162 17 -197 96
-79 129 -106 133 -110 3 -3 41 -35 85 -70 177 -143 342 -301 515 -496 19 -21
71 -84 115 -139 123 -155 185 -204 260 -205 63 0 155 86 155 146 0 14 -13 54
-30 88 -29 63 -155 248 -171 254 -5 2 -9 8 -9 13 0 15 -155 194 -251 289 -81
81 -144 137 -235 211 -23 19 -57 47 -75 62 -75 61 -217 165 -259 189 -56 33
-121 40 -183 21z"/>
<path d="M1720 4940 c-19 -4 -46 -12 -60 -20 -67 -35 -183 -142 -195 -179 -6
-21 -42 -34 -51 -20 -3 5 -10 7 -15 4 -5 -4 -111 -8 -237 -11 -673 -12 -724
-16 -770 -61 -42 -41 -51 -145 -17 -196 34 -53 99 -59 637 -62 241 -1 439 -3
441 -6 2 -2 13 -20 25 -40 31 -51 94 -106 165 -142 70 -36 89 -41 167 -41 78
0 111 8 171 40 204 112 275 334 168 532 -51 94 -174 189 -257 198 -83 9 -136
10 -172 4z m136 -285 c8 -8 24 -21 36 -29 24 -17 31 -72 15 -116 -31 -82 -171
-74 -207 11 -16 38 -3 73 43 120 34 34 46 40 70 35 15 -3 35 -12 43 -21z"/>
<path d="M6130 4935 c-89 -25 -185 -97 -238 -178 -70 -109 -80 -257 -24 -369
38 -78 107 -148 175 -181 72 -34 92 -39 166 -42 136 -4 246 56 353 194 l26 35
501 0 502 1 27 35 c40 52 52 78 52 120 0 74 -35 122 -99 140 -71 19 -150 22
-564 24 l-407 2 -68 71 c-74 78 -124 114 -192 138 -59 21 -154 26 -210 10z
m113 -266 c49 -25 87 -72 87 -106 0 -72 -44 -113 -120 -113 -48 0 -97 40 -104
84 -8 46 37 115 89 136 26 11 23 12 48 -1z"/>
<path d="M659 3799 c-123 -27 -245 -126 -302 -246 -28 -60 -32 -78 -32 -153 0
-76 4 -92 34 -152 77 -156 214 -241 370 -233 77 4 134 22 195 64 48 33 136
128 136 147 0 18 41 22 225 23 l170 1 32 -47 c51 -75 100 -120 167 -152 155
-75 340 -35 458 100 28 31 49 58 47 60 -2 2 7 20 21 39 23 32 25 44 25 135 0
97 -2 104 -38 177 -55 112 -175 214 -277 235 -127 27 -236 -15 -370 -143 l-85
-81 -174 -1 -174 0 -48 47 c-96 94 -135 127 -186 154 -56 30 -130 40 -194 26z
m109 -285 c62 -36 79 -116 36 -167 -50 -59 -89 -71 -143 -43 -77 40 -72 178 8
221 30 16 59 13 99 -11z m1124 -22 c48 -46 56 -81 28 -127 -57 -92 -134 -98
-208 -15 -42 47 -7 131 72 171 41 20 63 14 108 -29z"/>
<path d="M6188 3805 c-1 -2 -21 -6 -43 -9 -63 -10 -166 -63 -211 -109 -118
-122 -156 -309 -90 -448 26 -54 105 -149 124 -149 6 0 12 -3 14 -7 5 -13 81
-51 123 -62 75 -19 97 -20 159 -7 114 24 233 103 289 193 l26 41 177 1 177 0
26 -31 c28 -32 120 -125 144 -144 85 -69 259 -75 384 -14 122 60 193 177 199
326 5 124 -33 222 -117 304 -46 45 -152 101 -192 102 -15 1 -30 4 -32 8 -8 14
-127 -11 -181 -37 -32 -15 -94 -63 -143 -109 l-87 -82 -175 0 -174 0 -72 72
c-86 85 -176 141 -239 151 -25 3 -54 8 -64 10 -10 2 -20 2 -22 0z m1175 -295
c40 -27 59 -68 54 -116 -7 -59 -36 -91 -92 -104 -28 -6 -41 -4 -67 14 -83 56
-87 117 -14 191 49 48 67 51 119 15z m-1084 -20 c39 -39 47 -79 25 -125 -30
-64 -86 -87 -148 -61 -95 40 -96 171 -1 203 58 19 92 14 124 -17z"/>
<path d="M942 2639 c-12 -5 -22 -6 -22 -3 0 12 -55 -39 -77 -71 -26 -38 -29
-59 -19 -128 26 -184 323 -737 511 -954 5 -6 24 -28 40 -48 40 -50 310 -320
370 -370 26 -22 57 -49 70 -60 48 -42 65 -55 70 -55 2 0 16 -12 32 -26 72 -67
244 -162 303 -167 113 -10 206 101 171 204 -16 49 -56 88 -178 179 -60 44
-112 83 -118 87 -5 5 -30 24 -55 43 -25 19 -56 44 -70 56 -133 115 -232 211
-310 304 -30 36 -59 70 -65 76 -5 6 -17 22 -25 34 -8 12 -28 39 -43 59 -42 53
-127 193 -191 312 -61 116 -158 329 -149 329 3 0 1 6 -5 13 -5 6 -15 30 -21
53 -16 58 -72 120 -118 129 -56 12 -77 13 -101 4z"/>
<path d="M6980 2636 c-19 -6 -42 -15 -51 -21 -23 -15 -70 -98 -119 -210 -59
-136 -143 -302 -208 -410 -49 -82 -156 -238 -189 -275 -7 -8 -45 -53 -84 -100
-83 -98 -195 -211 -289 -290 -36 -30 -67 -57 -70 -60 -10 -10 -156 -118 -200
-147 -165 -112 -210 -231 -121 -317 35 -34 95 -55 135 -49 17 3 51 14 76 25
25 12 48 20 53 20 4 -1 7 2 7 8 0 5 7 10 15 10 8 0 15 5 15 10 0 6 6 10 13 10
8 0 22 9 32 20 10 11 24 20 31 20 7 0 14 4 16 8 2 4 32 30 68 57 172 130 423
361 510 471 104 131 131 166 156 204 16 25 31 47 34 50 7 6 108 169 144 233
53 93 158 310 194 400 30 77 36 105 36 169 1 63 -3 82 -20 105 -43 57 -115 81
-184 59z"/>
</g>
</svg>
